# xmcd
#
# Track frame offsets: 
#        150
#        25670
#        46785
#        73470
#        100205
#        121452
#        142885
#        169625
#        193962
#        218700
#        239320
#        257140
#
# Disc length: 3732 seconds
#
# Revision: 1
# Processed by: cddbd v1.5.1PL0 Copyright (c) Steve Scherf et al.
# Submitted via: ExactAudioCopy v0.95a5
#
DISCID=ac0e920c
DTITLE=European Jazz Trio - Dancing Queen
DYEAR=1900
DGENRE=Jazz
TTITLE0=Dancing Queen
TTITLE1=Fragile
TTITLE2=Itsumo Nandodemo
TTITLE3=For Once In My Life
TTITLE4=Look Of Love
TTITLE5=Message In A Bottle
TTITLE6=Calling You
TTITLE7=We Can Work It Out
TTITLE8=Snooky
TTITLE9=Time After Time
TTITLE10=Tonight(West Side Story)
TTITLE11=Three Times A Lady
EXTD=
EXTT0=
EXTT1=
EXTT2=
EXTT3=
EXTT4=
EXTT5=
EXTT6=
EXTT7=
EXTT8=
EXTT9=
EXTT10=
EXTT11=
PLAYORDER=
